<?xml version="1.0" encoding="utf-8"?>
<!-- Generator: Adobe Illustrator 16.0.4, SVG Export Plug-In . SVG Version: 6.00 Build 0)  -->
<!DOCTYPE svg PUBLIC "-//W3C//DTD SVG 1.1//EN" "http://www.w3.org/Graphics/SVG/1.1/DTD/svg11.dtd">
<svg version="1.1" id="Capa_1" xmlns="http://www.w3.org/2000/svg" xmlns:xlink="http://www.w3.org/1999/xlink" x="0px" y="0px"
	 width="64px" height="64px" viewBox="0 0 64 64" enable-background="new 0 0 64 64" xml:space="preserve">
<g>
	<path fill="#0E0F0F" d="M47.227,10.039V9.615c0-0.59-0.479-1.069-1.067-1.069H46.05c-0.59,0-1.069,0.479-1.069,1.069v0.424H30.813
		v2.776h0.855v2.7l-2.762,3.761c-0.676-0.21-1.471-0.106-1.931,0.456c-1.314,1.606-2.828,2.941-4.514,4.095
		c-0.719-0.881-1.366-1.803-1.894-2.829c-0.06-0.116-0.132-0.223-0.215-0.318c-0.509-1.01-2.11-2.163-4.027-2.265l-0.739,0.628
		l-1.71,1.81v-1.627H12.51v1.535l-1.735-1.718l-0.668-0.567c-2.18,0.222-3.946,0.74-4.229,1.808C3,23.806,3.38,27.577,3.01,31.308
		c-0.244,2.469,3.608,2.445,3.85,0c0.198-2.007,0.064-4.559,0.859-6.36l0.642,1.543v6.722l-0.147,7.971l-0.428,9.979
		c0,1.063,0.862,1.925,1.924,1.925c1.064,0,1.925-0.861,1.925-1.925l1.283-14.896h0.5l1.069,15.07c0,1.062,0.861,1.926,1.924,1.926
		s1.924-0.861,1.924-1.926l-0.428-10.152l-0.349-7.973v-6.082l0.028-2.807c0.892,0.354,1.593,1.549,1.593,1.549
		c0.393,0.495,0.801,0.977,1.217,1.449c0.047,0.054,0.104,0.093,0.156,0.139c0.513,0.747,1.475,1.172,2.482,0.568
		c2.505-1.498,4.81-3.311,6.663-5.576c0.664-0.811,0.796-1.925,0-2.722c-0.013-0.012-0.028-0.021-0.042-0.033l2.011-2.739v15.278
		c0,0.826,0.671,1.496,1.498,1.496h12.082v10.494l-6.316,4.879c-0.373,0.289-0.441,0.826-0.15,1.201
		c0.166,0.217,0.42,0.332,0.677,0.332c0.185,0,0.367-0.06,0.521-0.181l5.271-4.067v6.324c0,0.475,0.383,0.854,0.854,0.854
		c0.472,0,0.855-0.381,0.855-0.854v-6.324l5.268,4.067c0.155,0.121,0.342,0.181,0.522,0.181c0.255,0,0.509-0.115,0.677-0.332
		c0.29-0.375,0.221-0.912-0.152-1.201l-6.312-4.879V33.732h12.083c0.824,0,1.495-0.67,1.495-1.496V12.815h0.854v-2.776H47.227z
		 M59.255,32.238L59.255,32.238c-0.002,0.117-0.096,0.213-0.213,0.213H46.469c-0.113-0.054-0.619-0.054-0.73,0H33.166
		c-0.12,0-0.214-0.096-0.214-0.213V15.212l1.183-1.609l-0.689-0.506l-0.491,0.67v-0.952h26.301V32.238z"/>
	<path fill="#0E0F0F" d="M35.949,19.684c0.111,0,0.218-0.012,0.32-0.034l4.66,4.661c-0.021,0.104-0.033,0.21-0.033,0.321
		c0,0.834,0.676,1.511,1.511,1.511c0.836,0,1.513-0.677,1.513-1.511c0-0.083-0.009-0.163-0.021-0.241l3.586-1.825
		c0.271,0.414,0.734,0.689,1.269,0.689c0.136,0,0.265-0.02,0.39-0.052l1.414,1.414c-0.142,0.23-0.224,0.498-0.224,0.785
		c0,0.835,0.677,1.512,1.515,1.512c0.834,0,1.51-0.677,1.51-1.512c0-0.367-0.129-0.704-0.35-0.966l2.9-4.366
		c0.111,0.027,0.229,0.042,0.35,0.042c0.836,0,1.514-0.677,1.514-1.512s-0.678-1.513-1.514-1.513c-0.835,0-1.512,0.678-1.512,1.513
		c0,0.431,0.181,0.817,0.469,1.093l-2.849,4.29c-0.163-0.059-0.341-0.092-0.521-0.092c-0.263,0-0.508,0.066-0.725,0.184
		l-1.281-1.282c0.264-0.272,0.426-0.642,0.426-1.048c0-0.835-0.68-1.512-1.514-1.512c-0.836,0-1.512,0.677-1.512,1.512
		c0,0.022,0.001,0.043,0.003,0.063l-3.664,1.867c-0.277-0.338-0.698-0.553-1.171-0.553c-0.43,0-0.815,0.179-1.092,0.466
		l-4.321-4.322c0.288-0.276,0.468-0.661,0.468-1.091c0-0.835-0.678-1.512-1.513-1.512c-0.837,0-1.513,0.677-1.513,1.512
		C34.438,19.007,35.113,19.684,35.949,19.684z"/>
	<circle fill="#0E0F0F" cx="13.193" cy="13.893" r="3.447"/>
</g>
</svg>
