<?xml version="1.0" encoding="utf-8"?>
<!-- Generator: Adobe Illustrator 16.0.4, SVG Export Plug-In . SVG Version: 6.00 Build 0)  -->
<!DOCTYPE svg PUBLIC "-//W3C//DTD SVG 1.1//EN" "http://www.w3.org/Graphics/SVG/1.1/DTD/svg11.dtd">
<svg version="1.1" id="Capa_1" xmlns="http://www.w3.org/2000/svg" xmlns:xlink="http://www.w3.org/1999/xlink" x="0px" y="0px"
	 width="64px" height="64px" viewBox="0 0 64 64" enable-background="new 0 0 64 64" xml:space="preserve">
<g>
	<circle fill="#0E0F0F" cx="30.391" cy="7.924" r="4.892"/>
	<path fill="#0E0F0F" d="M37.85,14.904c-0.285-0.329-0.597-0.548-0.914-0.684l-0.002-0.032c-0.084-0.017-0.15-0.025-0.229-0.04
		c-0.149-0.043-0.3-0.07-0.449-0.078c-1.86-0.284-2.606,0.028-2.606,0.028l-2.592,5.333l-0.014,0.026l0.004-0.026l0.008,0.001
		c0-0.018,0-0.035,0-0.052H31.05l-0.006,0.05l-0.528-0.051h0.536l0.557-4.704h0.096v-0.792H29.73v0.792h0.102l0.669,4.786
		c0,0-2.549-5.568-2.779-5.479c0,0-0.927-1.076-4.417,0.677c-0.149,0.168-0.257,0.365-0.344,0.573
		c-0.029,0.034-0.06,0.056-0.088,0.092c-3.585,4.606-5.614,9.802-5.809,15.662c-0.112,3.351,5.081,3.34,5.192,0
		c0.082-2.472,0.594-4.868,1.499-7.115l-0.041,15.501v18.796c0,1.545,1.132,2.798,2.721,2.798s2.876-1.253,2.876-2.798V38.587
		c0,0,0.092-0.994,1.104-1.005c1.012-0.012,0.985,0.956,0.985,0.956v19.577c0,1.545,1.288,2.798,2.877,2.798
		s2.877-1.253,2.877-2.798l0.096-20.204c0-0.158,0.014-9.427,0.021-14.643c0.982,2.037,1.627,4.227,1.828,6.54
		c0.287,3.31,5.481,3.338,5.191,0C43.799,24.133,41.57,19.194,37.85,14.904z M31.02,26.162c-0.562,0-1.018-0.456-1.018-1.019
		s0.456-1.019,1.018-1.019c0.563,0,1.02,0.456,1.02,1.019C32.039,25.706,31.583,26.162,31.02,26.162z M31.02,23.107
		c-0.562,0-1.018-0.456-1.018-1.019s0.456-1.019,1.018-1.019c0.563,0,1.02,0.456,1.02,1.019
		C32.039,22.651,31.583,23.107,31.02,23.107z"/>
</g>
</svg>
