<?xml version="1.0" encoding="utf-8"?>
<!-- Generator: Adobe Illustrator 16.0.4, SVG Export Plug-In . SVG Version: 6.00 Build 0)  -->
<!DOCTYPE svg PUBLIC "-//W3C//DTD SVG 1.1//EN" "http://www.w3.org/Graphics/SVG/1.1/DTD/svg11.dtd">
<svg version="1.1" id="Capa_1" xmlns="http://www.w3.org/2000/svg" xmlns:xlink="http://www.w3.org/1999/xlink" x="0px" y="0px"
	 width="64px" height="64px" viewBox="0 0 64 64" enable-background="new 0 0 64 64" xml:space="preserve">
<g>
	<path fill="#0E0F0F" d="M46.664,17.072c-3.473-6.58-12.173-3.113-13.121,2.75c-0.896,1.938-2.001,3.882-3.616,5.094
		c-2.044,1.53-3.966-0.296-5.489-1.739c-0.958-0.91-2.037-1.241-3.063-1.171l-4.316-11.048L6.958,18.754l-0.31,0.12l6.218,17.842
		l10.283-3.827l-0.17-0.456c2.729,1.458,5.778,2.047,8.952,0.848c2.081-0.789,3.792-2.123,5.228-3.743
		c2.231,4.194,4.25,8.375,5.231,12.976c-0.188-0.06-0.377-0.104-0.567-0.142c-2.718-1.363-5.327-2.833-7.671-4.356
		c-0.269-0.174-0.547-0.314-0.832-0.434c-1.875-1.887-4.91-2.012-6.917-0.218c-4.581,4.093-8.431,9.536-11.132,15.743
		c-1.11,2.551,0.059,5.52,2.609,6.632c0.655,0.284,1.337,0.42,2.01,0.42c1.943,0,3.797-1.134,4.622-3.029
		c1.156-2.659,3.067-6.219,5.951-9.534c0.432,0.264,0.868,0.523,1.308,0.783c-1.908,2.119-3.371,4.366-5.013,6.9
		c-1.514,2.336-0.847,5.455,1.488,6.97c0.6,0.39,1.25,0.633,1.913,0.743c1.919,0.318,3.932-0.495,5.057-2.23
		c2.225-3.434,3.592-5.535,6-7.508c2.736,1.225,5.529,2.331,8.305,3.275c0.537,0.184,1.086,0.271,1.623,0.271
		c2.098,0,4.057-1.319,4.77-3.418c0.107-0.315,0.18-0.634,0.223-0.95c0.721-1.041,1.165-2.359,1.168-3.968
		C57.316,36.632,52.009,27.203,46.664,17.072z M19.353,22.686l-2.841-7.638l-5.641,2.188l6.114-4.36l3.586,9.265
		C20.141,22.259,19.731,22.447,19.353,22.686z"/>
	<circle fill="#0E0F0F" cx="31.308" cy="8.254" r="7.316"/>
</g>
</svg>
