<?xml version="1.0" encoding="utf-8"?>
<!-- Generator: Adobe Illustrator 16.0.0, SVG Export Plug-In . SVG Version: 6.00 Build 0)  -->
<!DOCTYPE svg PUBLIC "-//W3C//DTD SVG 1.1//EN" "http://www.w3.org/Graphics/SVG/1.1/DTD/svg11.dtd">
<svg version="1.1" id="Layer_1" xmlns="http://www.w3.org/2000/svg" xmlns:xlink="http://www.w3.org/1999/xlink" x="0px" y="0px"
	 width="50px" height="50px" viewBox="0 0 50 50" enable-background="new 0 0 50 50" xml:space="preserve">
<g>
	<path d="M20.076,30.782c0.414-0.503,0.719-1.116,0.866-1.743c-0.539-0.898-0.892-1.908-1.024-2.915
		c-0.038-0.275-0.074-0.55-0.074-0.822c0-0.197,0.011-0.392,0.029-0.584l-1.416-2.453l4.133-2.386l-2.991-5.182l-8.924,5.152
		l2.992,5.182l4.132-2.387l1.629,2.822c-0.45-0.256-0.966-0.407-1.521-0.407c-1.736,0-3.145,1.408-3.145,3.144
		c0,1.231,0.709,2.597,1.739,3.29c-2.463,0.625-4.288,2.764-4.288,4.347c0,0.716,1.665,1.157,3.721,1.326
		c-0.002-0.037-0.015-0.069-0.015-0.106C15.92,34.804,17.644,32.375,20.076,30.782z M13.944,23.992l-2.23-3.865l7.606-4.392
		l2.232,3.865L13.944,23.992z"/>
	<path d="M30.28,21.469c0.473,0.556,0.842,1.199,1.085,1.902v-5.132h6.274v-7.461H24.006v7.461h6.274V21.469z"/>
	<path d="M35.037,31.493c1.03-0.693,1.739-2.059,1.739-3.29c0-1.736-1.406-3.144-3.143-3.144c-0.746,0-1.423,0.271-1.962,0.706
		c-0.085,1.125-0.473,2.269-1.076,3.274c0.148,0.627,0.453,1.24,0.867,1.743c2.433,1.592,4.156,4.022,4.156,6.278
		c0,0.038-0.013,0.07-0.016,0.106c2.057-0.169,3.722-0.61,3.722-1.326C39.325,34.257,37.5,32.118,35.037,31.493z"/>
	<path d="M27.932,30.368c1.586-1.067,2.678-3.17,2.678-5.065c0-2.673-2.167-4.84-4.84-4.84s-4.841,2.167-4.841,4.84
		c0,1.895,1.093,3.998,2.679,5.065c-3.792,0.961-6.602,4.253-6.602,6.692c0,2.884,17.527,2.884,17.527,0
		C34.533,34.621,31.724,31.329,27.932,30.368z"/>
</g>
<g id="Ribbon_6">
	<g id="Regal_Vector_Pack_02">
	</g>
</g>
</svg>
