<?xml version="1.0" encoding="utf-8"?>
<!-- Generator: Adobe Illustrator 16.0.4, SVG Export Plug-In . SVG Version: 6.00 Build 0)  -->
<!DOCTYPE svg PUBLIC "-//W3C//DTD SVG 1.1//EN" "http://www.w3.org/Graphics/SVG/1.1/DTD/svg11.dtd">
<svg version="1.1" id="Capa_1" xmlns="http://www.w3.org/2000/svg" xmlns:xlink="http://www.w3.org/1999/xlink" x="0px" y="0px"
	 width="64px" height="64px" viewBox="0 0 64 64" enable-background="new 0 0 64 64" xml:space="preserve">
<g>
	<polygon fill="#0E0F0F" points="21.444,37.248 2.952,37.248 2.952,41.318 5.085,41.318 5.085,59.646 19.311,59.646 19.311,41.318 
		21.444,41.318 	"/>
	<path fill="#0E0F0F" d="M36.648,47.466c2.146-0.04,3.076-1.957,2.781-3.588c0.162-0.69,0.154-1.417-0.095-2.12
		c-2.192-6.197-6.646-10.528-12.695-12.98c-2.279-0.924-4.933,0.978-5.555,3.13c-3.289,0-6.578,0-9.866,0
		c-2.752,0-2.752,4.267,0,4.267c3.654,0,7.309,0,10.963,0c0.561,0.569,1.27,1.03,2.064,1.353c2.543,1.031,4.673,3.214,5.813,5.406
		c-5.002,2.084-8.431,6.508-9.401,12.558c-0.594,3.698,5.061,5.284,5.658,1.56C27.256,51.201,30.548,47.579,36.648,47.466z"/>
	<path fill="#0E0F0F" d="M16.998,27.462c-2.208,0-4,1.792-4,4.001h8C20.998,29.253,19.208,27.462,16.998,27.462z"/>
	<path fill="#0E0F0F" d="M43.359,35.462c-0.082-0.569-0.161-1.13-0.23-1.681c-0.072-0.586-0.611-1.006-1.191-0.926
		c-0.584,0.07-0.998,0.604-0.926,1.188c0.071,0.562,0.152,1.141,0.235,1.723c0.229,1.596,0.467,3.248,0.467,4.814
		c0,0.034,0.003,0.066,0.005,0.104c0.854,8.834-2.467,9.236-6.311,9.707c-3.021,0.365-6.782,0.824-6.763,6.414
		c0.002,0.588,0.479,1.062,1.066,1.062h0.005c0.588-0.002,1.065-0.479,1.063-1.071c-0.012-3.532,1.578-3.886,4.887-4.289
		c0.198-0.022,0.4-0.049,0.604-0.073v4.448l-3.475,1.646c-0.266,0.125-0.379,0.443-0.253,0.712c0.09,0.19,0.282,0.305,0.481,0.305
		c0.076,0,0.152-0.021,0.229-0.051l3.464-1.646l3.175,1.635c0.08,0.041,0.16,0.062,0.243,0.062c0.192,0,0.382-0.104,0.478-0.289
		c0.135-0.263,0.031-0.584-0.229-0.719l-3.042-1.563v-4.697c3.564-0.614,7.396-2.389,6.51-11.744
		C43.843,38.828,43.598,37.117,43.359,35.462z"/>
	<circle fill="#0E0F0F" cx="51.749" cy="11.724" r="4.962"/>
	<path fill="#0E0F0F" d="M58.766,20.793c-1.17-5.736-9.924-3.355-8.761,2.347c0.871,4.275,0.97,9.898,0.558,14.606
		c-0.147,1.732,0.547,2.947,1.608,3.654c0,0.009,0,0.015,0,0.021c0.253,5.153,0.267,10.312,0.269,15.472
		c0,3.782,5.867,3.782,5.867,0c-0.002-5.158-0.015-10.315-0.268-15.472c-0.007-0.146-0.025-0.278-0.049-0.414
		c0.883-0.721,1.521-1.782,1.644-3.196C60.116,32.29,59.872,26.23,58.766,20.793z M56.952,36.109c0,1.142-0.929,2.07-2.067,2.07
		c-1.142,0-2.068-0.932-2.068-2.07V24.513h0.953v11.596c0,0.615,0.5,1.115,1.115,1.115c0.614,0,1.114-0.5,1.114-1.115V24.513h0.953
		V36.109z"/>
</g>
</svg>
