<?xml version="1.0" encoding="utf-8"?>
<!-- Generator: Adobe Illustrator 16.0.4, SVG Export Plug-In . SVG Version: 6.00 Build 0)  -->
<!DOCTYPE svg PUBLIC "-//W3C//DTD SVG 1.1//EN" "http://www.w3.org/Graphics/SVG/1.1/DTD/svg11.dtd">
<svg version="1.1" id="Capa_1" xmlns="http://www.w3.org/2000/svg" xmlns:xlink="http://www.w3.org/1999/xlink" x="0px" y="0px"
	 width="64px" height="64px" viewBox="0 0 64 64" enable-background="new 0 0 64 64" xml:space="preserve">
<g>
	<circle fill="#0F1011" cx="17.352" cy="14.441" r="2.941"/>
	<path fill="#0F1011" d="M17.269,17.85c-0.432,0-0.839,0.096-1.21,0.26l1.497,1.498c0.018-0.002,0.036-0.005,0.053-0.005
		c0.019,0,0.037,0.003,0.055,0.005l1.254-1.255C18.444,18.038,17.881,17.85,17.269,17.85z"/>
	<circle fill="#0F1011" cx="17.61" cy="20.346" r="0.477"/>
	<circle fill="#0F1011" cx="31.068" cy="9.229" r="2.888"/>
	<path fill="#0F1011" d="M31.149,12.576c-0.548,0-1.054,0.155-1.492,0.415l1.367,1.366c0.018,0,0.036-0.005,0.054-0.005
		c0.019,0,0.037,0.005,0.054,0.005l1.418-1.418C32.132,12.713,31.658,12.576,31.149,12.576z"/>
	<circle fill="#0F1011" cx="31.079" cy="15.096" r="0.477"/>
	<circle fill="#0F1011" cx="47.005" cy="19.651" r="2.941"/>
	<path fill="#0F1011" d="M47.087,23.059c-0.588,0-1.13,0.174-1.592,0.465l1.28,1.282c0.017-0.002,0.035-0.006,0.053-0.006
		c0.02,0,0.037,0.003,0.055,0.006l1.465-1.466C47.963,23.161,47.538,23.059,47.087,23.059z"/>
	<circle fill="#0F1011" cx="46.829" cy="25.544" r="0.478"/>
	<path fill="#0F1011" d="M56.463,17.584c-0.484-0.487-1.273-0.487-1.761,0l-5.784,5.784l-1.568,1.646
		c0.139,0.136,0.225,0.323,0.225,0.531c0,0.41-0.334,0.745-0.745,0.745c-0.409,0-0.743-0.335-0.743-0.745
		c0-0.207,0.085-0.394,0.223-0.53l-1.199-1.198c-0.237,0.21-0.445,0.452-0.608,0.727c-0.058,0.079-0.104,0.165-0.142,0.258
		c-0.104,0.219-0.187,0.445-0.233,0.688l-2.69,8.16c-0.215,0.654,0.141,1.356,0.793,1.572c0.129,0.043,0.262,0.063,0.391,0.063
		c0.521,0,1.01-0.332,1.183-0.854l0.298-0.904c0.004,0.033,0.006,0.068,0.012,0.102c-0.026,0.1-0.045,0.201-0.045,0.309v9.453
		h-5.744v-8.754h-4.336c0.084-0.166,0.137-0.353,0.137-0.552v-10.83c0-0.106-0.018-0.206-0.043-0.304
		c0.02-0.14,0.042-0.276,0.042-0.421v-6.986c0-0.118-0.021-0.229-0.034-0.344l6.271-6.272c0.479-0.478,0.479-1.252,0-1.73
		c-0.478-0.477-1.25-0.477-1.729,0l-5.419,5.762L31.6,14.566c0.137,0.135,0.223,0.323,0.223,0.53c0,0.411-0.334,0.745-0.745,0.745
		c-0.41,0-0.744-0.334-0.744-0.745c0-0.207,0.085-0.394,0.221-0.529l-1.293-1.293c-0.011,0.009-0.024,0.016-0.035,0.026l-6.1-6.101
		c-0.478-0.477-1.251-0.477-1.729,0c-0.478,0.478-0.478,1.252,0,1.729l6.421,6.422c0.107,0.107,0.23,0.186,0.361,0.245v6.936
		c0,0.145,0.022,0.283,0.042,0.422c-0.025,0.097-0.042,0.198-0.042,0.303v10.828c0,0.199,0.052,0.385,0.137,0.552h-2.996v5.296
		h-5.047c0.008-0.061,0.018-0.117,0.018-0.179V28.725c0-0.107-0.018-0.209-0.042-0.308c0.004-0.034,0.005-0.067,0.01-0.1
		l0.297,0.903c0.173,0.523,0.66,0.856,1.182,0.856c0.13,0,0.261-0.021,0.391-0.063c0.653-0.215,1.008-0.92,0.792-1.572l-2.689-8.161
		c-0.049-0.243-0.132-0.47-0.235-0.687c-0.037-0.095-0.084-0.18-0.14-0.26c-0.152-0.255-0.343-0.483-0.56-0.682l-1.166,1.165
		c0.137,0.136,0.222,0.323,0.222,0.531c0,0.41-0.334,0.745-0.745,0.745c-0.41,0-0.743-0.335-0.743-0.745
		c0-0.207,0.084-0.394,0.22-0.53l-1.627-1.627l0.005-0.005l-5.812-5.812c-0.486-0.486-1.274-0.486-1.761,0
		c-0.486,0.486-0.486,1.275,0,1.761l6.389,6.389c-0.013,0.116-0.036,0.229-0.036,0.35v7.114c0,0.147,0.023,0.286,0.043,0.426
		c-0.025,0.1-0.044,0.204-0.044,0.312v11.027c0,0.061,0.01,0.118,0.018,0.178h-1.7v17.85h12.758h0.24h12.517h0.24h12.758V43.389
		h-0.965v-9.453c0-0.107-0.017-0.211-0.043-0.312c0.021-0.141,0.043-0.28,0.043-0.426c0,0-0.021-7.348-0.034-7.465l6.388-6.388
		C56.95,18.858,56.95,18.07,56.463,17.584z M16.734,39.752v-8.796c0.174,0.031,0.352,0.056,0.535,0.056s0.359-0.024,0.533-0.056
		v8.796c0,0.061,0.009,0.118,0.018,0.178h-1.103C16.725,39.87,16.734,39.812,16.734,39.752z M15.98,52.329v-1.153l1.052-0.951
		c1.779-1.593,2.645-2.508,2.669-3.459c0-0.664-0.401-1.191-1.34-1.191c-0.702,0-1.316,0.352-1.743,0.677l-0.539-1.365
		c0.615-0.465,1.567-0.841,2.67-0.841c1.842,0,2.857,1.078,2.857,2.557c0,1.366-0.99,2.457-2.17,3.51l-0.75,0.627v0.025h3.07v1.565
		H15.98z M30.627,34.083v-8.637c0.17,0.031,0.344,0.053,0.523,0.053c0.179,0,0.353-0.022,0.524-0.053v8.637
		c0,0.199,0.052,0.385,0.137,0.552H30.49C30.575,34.468,30.627,34.282,30.627,34.083z M32.47,45.527h-0.001h-1.843V39.07h-0.024
		l-1.555,0.74l-0.314-1.43l2.156-1.002h1.581V45.527z M46.555,36.167c0.174,0.031,0.35,0.054,0.532,0.054s0.36-0.021,0.534-0.054
		v7.222h-1.066V36.167z M44.443,54.63c-1.053,0-1.942-0.276-2.418-0.577l0.388-1.429c0.339,0.176,1.116,0.502,1.894,0.502
		c0.99,0,1.49-0.478,1.49-1.091c0-0.803-0.802-1.165-1.641-1.165h-0.777v-1.367h0.739c0.639-0.012,1.454-0.251,1.454-0.938
		c0-0.488-0.401-0.853-1.204-0.853c-0.664,0-1.365,0.288-1.704,0.488l-0.389-1.38c0.488-0.312,1.467-0.613,2.521-0.613
		c1.74,0,2.706,0.915,2.706,2.029c0,0.865-0.488,1.543-1.492,1.893v0.025c0.979,0.177,1.77,0.916,1.77,1.979
		C47.777,53.576,46.512,54.63,44.443,54.63z"/>
</g>
</svg>
