<?xml version="1.0" encoding="utf-8"?>
<!-- Generator: Adobe Illustrator 16.0.4, SVG Export Plug-In . SVG Version: 6.00 Build 0)  -->
<!DOCTYPE svg PUBLIC "-//W3C//DTD SVG 1.1//EN" "http://www.w3.org/Graphics/SVG/1.1/DTD/svg11.dtd">
<svg version="1.1" id="Capa_1" xmlns="http://www.w3.org/2000/svg" xmlns:xlink="http://www.w3.org/1999/xlink" x="0px" y="0px"
	 width="64px" height="64px" viewBox="0 0 64 64" enable-background="new 0 0 64 64" xml:space="preserve">
<g>
	<path fill="#0E0F0F" d="M25.429,17.124c-1.16,1.132-2.493,2.065-3.905,2.857c-1.457-0.468-2.845-1.209-3.811-2.413
		c-0.225-0.28-0.475-0.443-0.732-0.531l-0.002-0.043c-1.817-0.372-2.521-0.068-2.521-0.068l-2,4.109l0.435-3.668h0.073V16.76h-1.512
		v0.607h0.078l0.513,3.67l-2-4.277c-0.185,0.051,0.044,0.007-0.131,0.075c0,0-0.711-0.824-3.387,0.52
		c-0.012,0.013-0.019,0.029-0.03,0.042C6.323,17.464,6.15,17.55,5.985,17.68c-1.538,1.205-2.568,2.872-3.377,4.625
		c-0.484,1.048-1.232,2.46-1.232,3.663c0,1.179,0.916,2.56,1.446,3.552c0.962,1.803,2.301,3.403,4.026,4.509L6.84,36.309v14.414
		c0,1.188,0.868,2.146,2.086,2.146c1.218,0,2.207-0.96,2.207-2.146V35.705c0,0,0.07-0.762,0.846-0.77
		c0.776-0.01,0.755,0.73,0.755,0.73v15.016c0,1.186,0.988,2.146,2.207,2.146c1.218,0,2.206-0.96,2.206-2.146l0.072-15.494
		c0-0.146,0.015-10.477,0.019-13.228l-0.004-0.079c1.233,0.803,2.655,1.364,4.03,1.727c0.979,0.258,1.925-0.471,2.717-0.945
		c1.425-0.853,2.77-1.867,3.959-3.028C29.583,18.034,27.068,15.523,25.429,17.124z M4.977,25.748
		C4.939,25.567,4.979,25.564,4.977,25.748L4.977,25.748z M6.859,29.238c-0.354-0.476-0.671-0.985-0.971-1.511
		c-0.286-0.501-0.528-1.028-0.765-1.555c-0.047-0.105-0.08-0.194-0.104-0.271c0.409-1.4,1.005-2.792,1.859-3.982L6.859,29.238z
		 M12.18,26.611l-0.799-1.467l0.903-3.507l0.685,3.551L12.18,26.611z"/>
	<circle fill="#0E0F0F" cx="11.96" cy="12.19" r="3.751"/>
	<path fill="#0E0F0F" d="M59.729,18.431c-1.16,1.133-2.492,2.066-3.903,2.858c-1.457-0.468-2.847-1.209-3.812-2.413
		c-0.225-0.279-0.477-0.443-0.732-0.531l-0.002-0.042c-1.815-0.374-2.521-0.069-2.521-0.069l-1.998,4.11l0.436-3.668h0.072v-0.607
		h-1.513v0.607h0.078l0.513,3.672l-1.998-4.279c-0.188,0.052,0.045,0.007-0.133,0.075c0,0-0.711-0.825-3.387,0.52
		c-0.021,0.025-0.038,0.055-0.061,0.082c-1.422,0.828-2.847,1.655-4.27,2.483c-1.325-0.765-2.576-1.659-3.672-2.729
		c-1.64-1.6-4.155,0.911-2.512,2.513c1.342,1.311,5.063,4.978,7.213,3.729c1.156-0.673,2.312-1.346,3.472-2.019
		c0.103,0.254,0.181,0.415,0.181,0.415l-0.039,14.478v14.413c0,1.188,0.868,2.146,2.086,2.146c1.219,0,2.207-0.96,2.207-2.146
		V37.014c0,0,0.07-0.762,0.846-0.77c0.777-0.01,0.758,0.73,0.758,0.73V51.99c0,1.185,0.986,2.146,2.207,2.146
		c1.218,0,2.205-0.962,2.205-2.146l0.072-15.494c0-0.146,0.017-10.476,0.02-13.227l-0.004-0.079
		c1.232,0.803,2.654,1.364,4.029,1.727c0.979,0.258,1.926-0.472,2.718-0.945c1.426-0.853,2.771-1.867,3.959-3.026
		C63.882,19.342,61.367,16.831,59.729,18.431z M46.469,27.608l-0.8-1.467l0.903-3.507l0.685,3.552L46.469,27.608z"/>
	<circle fill="#0E0F0F" cx="46.26" cy="13.498" r="3.752"/>
</g>
</svg>
